<svg width="798" height="835" viewBox="0 0 798 835" fill="none" xmlns="http://www.w3.org/2000/svg">
<g clip-path="url(#clip0_2017_228)">
<path d="M308.5 834.5C478.88 834.5 617 810.1 617 780C617 749.9 478.88 725.5 308.5 725.5C138.12 725.5 0 749.9 0 780C0 810.1 138.12 834.5 308.5 834.5Z" fill="#3F3D56"/>
<path d="M496 603C662.514 603 797.5 468.014 797.5 301.5C797.5 134.986 662.514 0 496 0C329.486 0 194.5 134.986 194.5 301.5C194.5 468.014 329.486 603 496 603Z" fill="#3F3D56"/>
<path opacity="0.05" d="M496 550.398C633.463 550.398 744.898 438.962 744.898 301.5C744.898 164.037 633.463 52.6021 496 52.6021C358.538 52.6021 247.103 164.037 247.103 301.5C247.103 438.962 358.538 550.398 496 550.398Z" fill="black"/>
<path opacity="0.05" d="M496 505.494C608.663 505.494 699.994 414.163 699.994 301.5C699.994 188.837 608.663 97.5063 496 97.5063C383.338 97.5063 292.007 188.837 292.007 301.5C292.007 414.163 383.338 505.494 496 505.494Z" fill="black"/>
<path opacity="0.05" d="M496 447.76C576.777 447.76 642.259 382.277 642.259 301.5C642.259 220.723 576.777 155.24 496 155.24C415.223 155.24 349.74 220.723 349.74 301.5C349.74 382.277 415.223 447.76 496 447.76Z" fill="black"/>
<path d="M407.31 295.276C407.196 294.13 406.708 293.24 405.847 292.605C404.985 291.971 403.815 291.653 402.338 291.653C401.334 291.653 400.487 291.795 399.795 292.08C399.104 292.354 398.574 292.738 398.205 293.23C397.845 293.723 397.665 294.281 397.665 294.906C397.646 295.427 397.755 295.882 397.991 296.27C398.238 296.658 398.574 296.994 399 297.278C399.426 297.553 399.919 297.795 400.477 298.003C401.036 298.202 401.633 298.372 402.267 298.514L404.881 299.139C406.15 299.423 407.314 299.802 408.375 300.276C409.436 300.749 410.354 301.331 411.131 302.023C411.907 302.714 412.509 303.528 412.935 304.466C413.37 305.403 413.593 306.478 413.602 307.69C413.593 309.471 413.138 311.014 412.239 312.321C411.348 313.618 410.061 314.627 408.375 315.347C406.699 316.057 404.677 316.412 402.31 316.412C399.961 316.412 397.916 316.052 396.173 315.332C394.44 314.613 393.086 313.547 392.111 312.136C391.145 310.716 390.638 308.959 390.591 306.866H396.543C396.609 307.842 396.888 308.656 397.381 309.31C397.883 309.954 398.55 310.441 399.384 310.773C400.226 311.095 401.178 311.256 402.239 311.256C403.28 311.256 404.185 311.104 404.952 310.801C405.728 310.498 406.33 310.077 406.756 309.537C407.182 308.997 407.395 308.377 407.395 307.676C407.395 307.023 407.201 306.473 406.812 306.028C406.434 305.583 405.875 305.205 405.136 304.892C404.407 304.58 403.512 304.295 402.452 304.04L399.284 303.244C396.831 302.648 394.895 301.715 393.474 300.446C392.054 299.177 391.348 297.468 391.358 295.318C391.348 293.557 391.817 292.018 392.764 290.702C393.721 289.385 395.032 288.358 396.699 287.619C398.366 286.881 400.259 286.511 402.381 286.511C404.54 286.511 406.424 286.881 408.034 287.619C409.653 288.358 410.913 289.385 411.812 290.702C412.712 292.018 413.176 293.543 413.205 295.276H407.31ZM423.89 286.909V316H417.739V286.909H423.89ZM453.283 286.909V316H447.97L435.314 297.69H435.101V316H428.95V286.909H434.348L446.905 305.205H447.161V286.909H453.283ZM477.935 316H467.622V286.909H478.02C480.946 286.909 483.465 287.491 485.577 288.656C487.688 289.812 489.313 291.473 490.449 293.642C491.595 295.811 492.168 298.405 492.168 301.426C492.168 304.456 491.595 307.061 490.449 309.239C489.313 311.417 487.679 313.088 485.548 314.253C483.427 315.418 480.889 316 477.935 316ZM473.773 310.73H477.679C479.497 310.73 481.027 310.408 482.267 309.764C483.517 309.111 484.455 308.102 485.08 306.739C485.714 305.366 486.031 303.595 486.031 301.426C486.031 299.277 485.714 297.52 485.08 296.156C484.455 294.793 483.522 293.789 482.281 293.145C481.041 292.501 479.511 292.179 477.693 292.179H473.773V310.73ZM500.097 316H493.506L503.549 286.909H511.475L521.504 316H514.913L507.626 293.557H507.398L500.097 316ZM499.685 304.565H515.254V309.366H499.685V304.565ZM520.342 291.98V286.909H544.234V291.98H535.328V316H529.249V291.98H520.342ZM573.574 301.455C573.574 304.627 572.973 307.326 571.77 309.551C570.577 311.777 568.948 313.476 566.884 314.651C564.829 315.815 562.518 316.398 559.952 316.398C557.366 316.398 555.046 315.811 552.991 314.636C550.937 313.462 549.313 311.762 548.119 309.537C546.926 307.312 546.33 304.617 546.33 301.455C546.33 298.282 546.926 295.583 548.119 293.358C549.313 291.133 550.937 289.437 552.991 288.273C555.046 287.098 557.366 286.511 559.952 286.511C562.518 286.511 564.829 287.098 566.884 288.273C568.948 289.437 570.577 291.133 571.77 293.358C572.973 295.583 573.574 298.282 573.574 301.455ZM567.338 301.455C567.338 299.4 567.03 297.667 566.415 296.256C565.809 294.845 564.952 293.775 563.844 293.045C562.736 292.316 561.438 291.952 559.952 291.952C558.465 291.952 557.168 292.316 556.06 293.045C554.952 293.775 554.09 294.845 553.474 296.256C552.868 297.667 552.565 299.4 552.565 301.455C552.565 303.509 552.868 305.242 553.474 306.653C554.09 308.064 554.952 309.134 556.06 309.864C557.168 310.593 558.465 310.957 559.952 310.957C561.438 310.957 562.736 310.593 563.844 309.864C564.952 309.134 565.809 308.064 566.415 306.653C567.03 305.242 567.338 303.509 567.338 301.455ZM593.911 295.276C593.798 294.13 593.31 293.24 592.448 292.605C591.586 291.971 590.417 291.653 588.94 291.653C587.936 291.653 587.088 291.795 586.397 292.08C585.706 292.354 585.175 292.738 584.806 293.23C584.446 293.723 584.266 294.281 584.266 294.906C584.247 295.427 584.356 295.882 584.593 296.27C584.839 296.658 585.175 296.994 585.602 297.278C586.028 297.553 586.52 297.795 587.079 298.003C587.638 298.202 588.234 298.372 588.869 298.514L591.482 299.139C592.751 299.423 593.916 299.802 594.977 300.276C596.037 300.749 596.956 301.331 597.732 302.023C598.509 302.714 599.11 303.528 599.536 304.466C599.972 305.403 600.194 306.478 600.204 307.69C600.194 309.471 599.74 311.014 598.84 312.321C597.95 313.618 596.662 314.627 594.977 315.347C593.3 316.057 591.279 316.412 588.911 316.412C586.563 316.412 584.517 316.052 582.775 315.332C581.042 314.613 579.688 313.547 578.712 312.136C577.746 310.716 577.24 308.959 577.192 306.866H583.144C583.21 307.842 583.49 308.656 583.982 309.31C584.484 309.954 585.152 310.441 585.985 310.773C586.828 311.095 587.78 311.256 588.84 311.256C589.882 311.256 590.786 311.104 591.553 310.801C592.33 310.498 592.931 310.077 593.357 309.537C593.783 308.997 593.996 308.377 593.996 307.676C593.996 307.023 593.802 306.473 593.414 306.028C593.035 305.583 592.477 305.205 591.738 304.892C591.009 304.58 590.114 304.295 589.053 304.04L585.886 303.244C583.433 302.648 581.496 301.715 580.076 300.446C578.656 299.177 577.95 297.468 577.96 295.318C577.95 293.557 578.419 292.018 579.366 290.702C580.322 289.385 581.634 288.358 583.3 287.619C584.967 286.881 586.861 286.511 588.982 286.511C591.141 286.511 593.026 286.881 594.636 287.619C596.255 288.358 597.514 289.385 598.414 290.702C599.314 292.018 599.778 293.543 599.806 295.276H593.911Z" fill="white"/>
<path d="M197.171 328.482C197.171 328.482 173.467 395.204 184.002 418.908C194.537 442.612 211.217 465.438 211.217 465.438C211.217 465.438 205.072 332.872 197.171 328.482Z" fill="#D0CDE1"/>
<path opacity="0.1" d="M197.171 328.482C197.171 328.482 173.467 395.204 184.002 418.908C194.537 442.612 211.217 465.438 211.217 465.438C211.217 465.438 205.072 332.872 197.171 328.482Z" fill="black"/>
<path d="M213.85 482.997C213.85 482.997 212.095 499.677 211.217 500.555C210.339 501.433 212.095 503.189 211.217 505.823C210.339 508.457 209.461 511.968 211.217 512.846C212.973 513.724 201.56 590.981 201.56 590.981C201.56 590.981 173.466 627.854 184.879 685.797L188.391 744.618C188.391 744.618 215.606 746.374 215.606 736.717C215.606 736.717 213.85 725.304 213.85 720.036C213.85 714.769 218.24 714.769 215.606 712.135C212.973 709.501 212.973 707.745 212.973 707.745C212.973 707.745 217.362 704.234 216.484 703.356C215.606 702.478 224.386 640.145 224.386 640.145C224.386 640.145 234.043 630.488 234.043 625.22V619.953C234.043 619.953 238.432 608.54 238.432 607.662C238.432 606.784 262.136 553.231 262.136 553.231L271.793 591.859L282.329 647.169C282.329 647.169 287.596 697.21 298.131 716.525C298.131 716.525 316.568 779.735 316.568 777.979C316.568 776.223 347.295 771.834 346.417 763.932C345.539 756.031 327.981 645.413 327.981 645.413L332.37 481.241L213.85 482.997Z" fill="#2F2E41"/>
<path d="M190.147 740.228C190.147 740.228 166.443 786.758 182.246 788.514C198.048 790.27 204.194 790.27 211.217 783.247C215.057 779.407 222.832 774.255 229.093 770.374C232.802 768.111 235.799 764.849 237.739 760.961C239.679 757.073 240.484 752.717 240.062 748.392C239.599 744.097 237.994 740.558 234.043 740.228C223.508 739.351 211.217 729.693 211.217 729.693L190.147 740.228Z" fill="#2F2E41"/>
<path d="M320.957 774.467C320.957 774.467 297.254 820.997 313.056 822.753C328.859 824.509 335.004 824.509 342.028 817.486C345.867 813.646 353.643 808.494 359.903 804.613C363.613 802.35 366.609 799.088 368.549 795.2C370.489 791.312 371.295 786.956 370.872 782.631C370.409 778.336 368.804 774.797 364.854 774.467C354.319 773.59 342.028 763.932 342.028 763.932L320.957 774.467Z" fill="#2F2E41"/>
<path d="M295.905 252.337C316.286 252.337 332.809 235.814 332.809 215.433C332.809 195.051 316.286 178.528 295.905 178.528C275.523 178.528 259 195.051 259 215.433C259 235.814 275.523 252.337 295.905 252.337Z" fill="#FFB8B8"/>
<path d="M272.18 227.558C272.18 227.558 245.82 276.062 243.711 276.062C241.602 276.062 291.16 291.878 291.16 291.878C291.16 291.878 304.867 245.483 306.976 241.266L272.18 227.558Z" fill="#FFB8B8"/>
<path d="M312.617 280.635C312.617 280.635 259.941 251.664 254.674 252.542C249.406 253.42 193.219 302.583 194.097 322.776C194.975 342.968 201.998 376.329 201.998 376.329C201.998 376.329 204.632 469.389 209.9 470.267C215.167 471.145 209.022 486.947 210.778 486.947C212.533 486.947 333.687 486.947 334.565 484.314C335.443 481.68 312.617 280.635 312.617 280.635Z" fill="#D0CDE1"/>
<path d="M342.027 489.142C342.027 489.142 358.708 540.062 344.661 538.306C330.614 536.55 324.469 494.41 324.469 494.41L342.027 489.142Z" fill="#FFB8B8"/>
<path d="M297.253 277.563C297.253 277.563 264.77 284.586 270.038 328.482C275.305 372.378 284.962 416.275 284.962 416.275L317.446 487.386L320.957 500.555L344.661 494.41L327.103 392.571C327.103 392.571 320.957 283.708 313.056 280.196C308.073 278.072 302.656 277.169 297.253 277.563Z" fill="#D0CDE1"/>
<path opacity="0.1" d="M277.5 414.958L317.885 486.947L283.86 411.09L277.5 414.958Z" fill="black"/>
<path d="M332.646 204.566L332.768 201.746L338.378 203.142C338.318 202.237 338.062 201.355 337.628 200.558C337.194 199.762 336.593 199.068 335.865 198.527L341.84 198.193C336.826 191.067 330.419 185.032 323.007 180.451C315.595 175.87 307.332 172.839 298.716 171.541C285.79 169.668 271.398 172.379 262.534 181.972C258.235 186.625 255.533 192.542 253.612 198.579C250.072 209.697 249.351 222.951 256.731 231.988C264.232 241.173 277.333 242.973 289.137 244.109C293.29 244.509 297.643 244.881 301.492 243.27C301.92 238.855 301.355 234.401 299.838 230.233C299.206 228.943 298.904 227.516 298.959 226.081C299.484 222.569 304.168 221.684 307.687 222.159C311.205 222.633 315.436 223.359 317.749 220.664C319.341 218.808 319.247 216.105 319.458 213.669C320.033 207.035 332.586 205.957 332.646 204.566Z" fill="#2F2E41"/>
<path d="M559 787.5C582.748 787.5 602 768.248 602 744.5C602 720.752 582.748 701.5 559 701.5C535.252 701.5 516 720.752 516 744.5C516 768.248 535.252 787.5 559 787.5Z" fill="#F5DF66"/>
<path d="M54 772.5C77.7482 772.5 97 753.248 97 729.5C97 705.752 77.7482 686.5 54 686.5C30.2518 686.5 11 705.752 11 729.5C11 753.248 30.2518 772.5 54 772.5Z" fill="#F5DF66"/>
<path d="M54 703.5C71.1208 703.5 85 689.621 85 672.5C85 655.379 71.1208 641.5 54 641.5C36.8792 641.5 23 655.379 23 672.5C23 689.621 36.8792 703.5 54 703.5Z" fill="#F5DF66"/>
<path d="M54 646.5C66.1503 646.5 76 636.65 76 624.5C76 612.35 66.1503 602.5 54 602.5C41.8497 602.5 32 612.35 32 624.5C32 636.65 41.8497 646.5 54 646.5Z" fill="#F5DF66"/>
</g>
<defs>
<clipPath id="clip0_2017_228">
<rect width="797.5" height="834.5" fill="white"/>
</clipPath>
</defs>
</svg>
